<svg width="72" height="72" viewBox="0 0 72 72" fill="none" xmlns="http://www.w3.org/2000/svg">
<circle cx="36" cy="68" r="4" transform="rotate(180 36 68)" fill="#00482E"/>
<circle cx="36" cy="52" r="4" transform="rotate(180 36 52)" fill="#00482E"/>
<circle cx="36" cy="36" r="4" transform="rotate(180 36 36)" fill="#00482E"/>
<circle cx="36" cy="20" r="4" transform="rotate(180 36 20)" fill="#00482E"/>
<circle cx="52" cy="68" r="4" transform="rotate(180 52 68)" fill="#00482E"/>
<circle cx="52" cy="52" r="4" transform="rotate(180 52 52)" fill="#00482E"/>
<circle cx="52" cy="36" r="4" transform="rotate(180 52 36)" fill="#00482E"/>
<circle cx="52" cy="20" r="4" transform="rotate(180 52 20)" fill="#00482E"/>
<circle cx="52" cy="4" r="4" transform="rotate(180 52 4)" fill="#00482E"/>
<circle cx="68" cy="68" r="4" transform="rotate(180 68 68)" fill="#00482E"/>
<circle cx="68" cy="52" r="4" transform="rotate(180 68 52)" fill="#00482E"/>
<circle cx="68" cy="36" r="4" transform="rotate(180 68 36)" fill="#00482E"/>
<circle cx="68" cy="20" r="4" transform="rotate(180 68 20)" fill="#00482E"/>
<circle cx="68" cy="4" r="4" transform="rotate(180 68 4)" fill="#00482E"/>
<circle cx="20" cy="68" r="4" transform="rotate(180 20 68)" fill="#00482E"/>
<circle cx="20" cy="52" r="4" transform="rotate(180 20 52)" fill="#00482E"/>
<circle cx="20" cy="36" r="4" transform="rotate(180 20 36)" fill="#00482E"/>
<circle cx="20" cy="20" r="4" transform="rotate(180 20 20)" fill="#00482E"/>
<circle cx="4" cy="68" r="4" transform="rotate(180 4 68)" fill="#00482E"/>
<circle cx="4" cy="52" r="4" transform="rotate(180 4 52)" fill="#00482E"/>
</svg>
