<svg width="187" height="185" viewBox="0 0 187 185" fill="none" xmlns="http://www.w3.org/2000/svg">
<path d="M77.7333 0.768951C42.6667 7.16895 14.6667 31.1689 3.86667 64.3689C0.4 74.9023 0 77.8356 0 93.4356C0.133333 108.769 0.533333 111.969 3.86667 121.436C5.86667 127.302 9.86667 136.102 12.8 141.036C18.4 150.502 34 167.436 37.2 167.436C38.2667 167.436 43.3333 163.169 48.5333 157.969C55.3333 151.169 59.4667 145.569 63.3333 137.836C70.9333 122.636 70.6667 121.036 59.8667 116.236C49.8667 111.702 43.3333 106.236 43.3333 102.369C43.3333 100.902 44.9333 98.3689 47.0667 96.769C50.4 93.9689 51.6 93.8356 63.2 94.6356L75.6 95.5689L73.2 92.3689C55.3333 69.5689 49.2 58.2356 46.5333 43.169C44.1333 29.3023 45.7333 21.169 51.4667 18.1023C58 14.5023 61.0667 19.4356 62.5333 35.7023C63.6 47.0356 65.6 52.769 68.5333 52.769C71.4667 52.769 78.2667 45.569 87.7333 32.5023C91.8667 26.9023 96.4 21.9689 98 21.4356C102.4 20.1023 107.333 23.9689 107.333 28.9023C107.333 34.6356 104.667 39.0356 92 54.2356C85.7333 61.5689 80.6667 68.7689 80.6667 69.9689C80.6667 72.5023 90.1333 87.8356 92.6667 89.4356C95.2 91.0356 99.8667 85.4356 107.2 72.2356C111.067 65.3023 115.2 58.7689 116.667 57.4356C120.267 54.2356 126.133 55.3023 128.667 59.8356C130.533 63.3023 130.4 63.8356 126.133 71.8356C111.6 98.9023 112 97.7023 114.4 101.169C115.6 103.036 124.267 109.302 133.733 115.302C143.333 121.302 151.467 127.036 151.867 128.236C153.067 131.436 152.8 136.636 151.333 139.436C148.8 144.102 144.267 145.436 128.8 146.102L113.6 146.769L108.667 165.702C103.2 187.569 102.667 186.369 117.067 182.636C135.467 177.969 155.467 164.636 166.667 149.969C212.4 89.4356 172.4 3.70229 96.8 0.10228C89.7333 -0.164383 81.2 0.10228 77.7333 0.768951Z" fill="#007A7C"/>
<path d="M101.2 117.436C99.2002 120.502 99.2002 121.036 101.2 124.102C104 128.369 109.2 128.502 112 124.236C114.134 121.169 113.467 117.036 110.8 115.169C107.867 113.036 103.334 114.236 101.2 117.436Z" fill="#007A7C"/>
</svg>
